<?xml version="1.0" encoding="UTF-8" standalone="no"?>
<!-- Created with Inkscape (http://www.inkscape.org/) -->
<svg
   xmlns:dc="http://purl.org/dc/elements/1.1/"
   xmlns:cc="http://web.resource.org/cc/"
   xmlns:rdf="http://www.w3.org/1999/02/22-rdf-syntax-ns#"
   xmlns:svg="http://www.w3.org/2000/svg"
   xmlns="http://www.w3.org/2000/svg"
   xmlns:sodipodi="http://sodipodi.sourceforge.net/DTD/sodipodi-0.dtd"
   xmlns:inkscape="http://www.inkscape.org/namespaces/inkscape"
   width="297mm"
   height="210mm"
   id="svg2010"
   sodipodi:version="0.32"
   inkscape:version="0.44.1"
   sodipodi:docbase="C:\Documents and Settings\Standard\Mes documents\Ouiqui\Blasons"
   sodipodi:docname="Héraldique_meuble_Drakkar.svg">
  <defs
     id="defs2012" />
  <sodipodi:namedview
     inkscape:document-units="mm"
     pagecolor="#ffffff"
     bordercolor="#666666"
     borderopacity="1.0"
     inkscape:pageopacity="0.0"
     inkscape:pageshadow="2"
     inkscape:zoom="0.43415836"
     inkscape:cx="490"
     inkscape:cy="380"
     inkscape:current-layer="layer1"
     id="namedview2014"
     inkscape:window-width="1024"
     inkscape:window-height="721"
     inkscape:window-x="-4"
     inkscape:window-y="-4" />
  <metadata
     id="metadata2016">
    <rdf:RDF>
      <cc:Work
         rdf:about="">
        <dc:format>image/svg+xml</dc:format>
        <dc:type
           rdf:resource="http://purl.org/dc/dcmitype/StillImage" />
      </cc:Work>
    </rdf:RDF>
  </metadata>
  <g
     inkscape:label="Layer 1"
     inkscape:groupmode="layer"
     id="layer1">
    <g
       id="g2103"
       inkscape:label="Drakkar"
       transform="matrix(1.188106,0,0,1.188106,86.8707,-322.4038)">
      <g
         transform="matrix(0.90174,0,0,0.90174,-1045.749,-720.4812)"
         id="g9699">
        <g
           id="g8810"
           style="fill:none;stroke:black;stroke-width:3;stroke-miterlimit:4;stroke-dasharray:none;stroke-opacity:1">
          <path
             id="path8806"
             d="M 1915.2492,1577.6415 L 1585.9395,1244.2912 L 1870.8025,1589.7633"
             style="fill:none;fill-opacity:0.75;fill-rule:evenodd;stroke:black;stroke-width:3;stroke-linecap:butt;stroke-linejoin:miter;stroke-miterlimit:4;stroke-dasharray:none;stroke-opacity:1" />
          <path
             id="path8808"
             d="M 1587.9598,1244.2912 L 1941.5132,1555.4181"
             style="fill:none;fill-opacity:0.75;fill-rule:evenodd;stroke:black;stroke-width:3;stroke-linecap:butt;stroke-linejoin:miter;stroke-miterlimit:4;stroke-dasharray:none;stroke-opacity:1" />
        </g>
        <g
           id="g8748">
          <g
             transform="translate(0,8)"
             id="g7655">
            <path
               style="fill:white;fill-opacity:1;fill-rule:evenodd;stroke:black;stroke-width:3;stroke-linecap:butt;stroke-linejoin:miter;stroke-miterlimit:4;stroke-dasharray:none;stroke-opacity:1"
               d="M 1577.8583,1199.8444 C 1544.1964,1183.6141 1513.8819,1191.0825 1481.8938,1190.7531 L 1507.6168,1158.5508 C 1515.5804,1147.7919 1556.6561,1147.0833 1579.8786,1168.5297 L 1577.8583,1199.8444 z "
               id="path6764"
               sodipodi:nodetypes="ccccc" />
            <path
               style="fill:white;fill-opacity:1;fill-rule:evenodd;stroke:black;stroke-width:3;stroke-linecap:butt;stroke-linejoin:miter;stroke-miterlimit:4;stroke-dasharray:none;stroke-opacity:1"
               d="M 1480.8836,1184.6922 L 1508.4536,1157.8873 C 1499.6341,1176.4903 1542.2452,1186.1645 1532.6973,1198.2934 L 1506.1374,1228.1287 C 1512.7143,1215.0938 1472.3844,1201.3511 1480.8836,1184.6922 z "
               id="path6766"
               sodipodi:nodetypes="ccccc" />
            <path
               style="fill:white;fill-opacity:1;fill-rule:evenodd;stroke:black;stroke-width:3;stroke-linecap:butt;stroke-linejoin:miter;stroke-miterlimit:4;stroke-dasharray:none;stroke-opacity:1"
               d="M 1508.2803,1227.4043 L 1530.2078,1202.3746 C 1517.7674,1218.5777 1436.4424,1189.4389 1429.07,1223.1186 L 1429.07,1242.3115 C 1442.4225,1218.904 1501.3955,1235.9291 1508.2803,1227.4043 z "
               id="path6768"
               sodipodi:nodetypes="ccccc" />
          </g>
          <g
             id="g6671">
            <path
               style="fill:#fcef3c;fill-opacity:1;fill-rule:evenodd;stroke:black;stroke-width:4.09810495;stroke-linecap:round;stroke-linejoin:round;stroke-miterlimit:4;stroke-dashoffset:0;stroke-opacity:1"
               d="M 1574.8347,1169.3397 L 1589.4509,1169.3397 L 1600.8795,1724.6702 L 1565.4061,1724.6702 L 1574.8347,1169.3397 z "
               id="rect2908"
               sodipodi:nodetypes="ccccc" />
            <path
               sodipodi:type="arc"
               style="opacity:1;fill:#fcef3c;fill-opacity:1;fill-rule:evenodd;stroke:black;stroke-width:3;stroke-linecap:round;stroke-linejoin:round;stroke-miterlimit:4;stroke-dasharray:none;stroke-dashoffset:0;stroke-opacity:1"
               id="path2906"
               sodipodi:cx="1595"
               sodipodi:cy="1168.0764"
               sodipodi:rx="15"
               sodipodi:ry="15"
               d="M 1588.7924,1181.7317 A 15,15 0 1 1 1589.3185,1181.9588"
               sodipodi:start="1.9974614"
               sodipodi:end="8.2424464"
               sodipodi:open="true"
               transform="translate(-11.8572,-7.142857)" />
          </g>
          <path
             sodipodi:nodetypes="cccccccccccccccccccccccccccsssccccccsscccccsccccccsccccccssccccccccccccc"
             id="path7720"
             d="M 1375.7143,1295.2193 C 1382.7644,1310.9949 1396.4096,1328.7797 1384.2858,1337.3622 C 1314.2542,1382.7032 1324.569,1518.0273 1385,1550.9336 L 1414.2857,1573.7908 C 1425.4397,1574.3011 1432.4337,1577.0528 1441.7143,1603.7908 L 1452.8571,1603.7908 C 1448.8841,1589.6756 1443.263,1585.0381 1446.4286,1553.0765 C 1438.7924,1554.0031 1427.9758,1533.1451 1418.5714,1525.9336 C 1428.5284,1536.9949 1439.991,1552.5732 1446.4286,1553.0765 C 1478.484,1562.9707 1479.8226,1562.1784 1505,1545.2194 C 1490.2396,1537.8379 1479.0823,1527.1125 1475.7143,1515.9336 C 1481.5932,1530.8728 1493.612,1537.6255 1505,1545.2193 C 1533.846,1550.8857 1565.1847,1559.7928 1575.7143,1541.6479 C 1549.3756,1525.1258 1551.7076,1521.9894 1537.8571,1508.0765 C 1550.5204,1524.339 1562.2733,1534.3448 1575.7143,1542.3622 C 1604.8659,1555.7514 1624.4142,1554.2022 1636.4286,1540.9336 C 1618.5612,1536.145 1610.312,1524.4863 1605.7143,1510.2193 C 1613.4175,1529.1452 1622.3115,1536.7206 1636.4286,1541.6479 C 1666.9905,1556.588 1684.6019,1554.8775 1702.1429,1553.0765 L 1709.2857,1549.505 C 1688.8881,1540.8547 1678.5793,1526.4393 1671.4286,1510.2193 C 1682.0479,1528.2503 1688.1161,1540.5605 1708.5714,1550.2193 C 1729.5301,1559.1266 1757.0565,1571.7147 1779.2857,1564.505 C 1764.1063,1555.1331 1756.4939,1543.9191 1745,1529.505 C 1753.906,1545.7347 1785.6276,1573.6838 1789.2857,1569.505 C 1795.1239,1571.0006 1800.6225,1571.1379 1810.1429,1587.3622 C 1810.1429,1587.3622 1823.5714,1588.7908 1820.7143,1582.3622 C 1807.2667,1561.6965 1793.3049,1541.1336 1780.5272,1520.3339 C 1734.0094,1444.6117 1725.7432,1318.7383 1770,1267.3622 C 1792.4823,1241.2633 1792.9296,1242.4557 1795.7143,1240.2193 C 1803.3168,1234.1137 1811.345,1201.9139 1807.8571,1203.0765 L 1810.7143,1195.9336 L 1800.7143,1195.9336 C 1800.7143,1195.9336 1800,1214.8622 1790,1228.7908 C 1778.3373,1242.2103 1758.151,1259.9895 1738.5714,1250.9336 C 1736.4286,1247.3622 1723.5714,1212.3622 1723.5714,1212.3622 C 1723.5714,1212.3622 1715.7143,1208.7908 1715.7143,1212.3622 C 1715.7143,1215.9336 1724.2858,1242.005 1722.1429,1245.2193 C 1714.437,1256.778 1700,1260.9336 1698.5714,1265.2193 C 1671.7838,1302.9776 1663.4311,1337.6633 1659.2857,1371.6479 C 1663.1097,1337.6388 1671.3769,1303.2594 1697.8571,1267.3622 C 1684.8161,1271.9825 1672.5661,1271.0664 1661.4286,1262.3622 C 1655.0156,1254.672 1656.1292,1241.3367 1657.1429,1228.0765 C 1657.1429,1228.0765 1642.9865,1228.395 1645.7143,1229.505 C 1648.5551,1230.661 1654.7066,1256.8826 1647.8571,1262.3622 C 1616.4081,1302.2359 1603.9165,1335.8524 1596.2857,1380.505 C 1602.5632,1351.7345 1611.4571,1316.0851 1635.7143,1278.7907 C 1622.1429,1283.6115 1610,1290.6706 1596.4286,1284.505 C 1591.1231,1289.5829 1586.2016,1274.5576 1584.7142,1243.9337 L 1575.2857,1246.7907 C 1575.2857,1246.7907 1575.5357,1265.7551 1574.2857,1278.7908 C 1573.0357,1291.8265 1564.2857,1300.9336 1564.2857,1300.9336 C 1532.7921,1335.0065 1527.9567,1356.3217 1521.4286,1401.6479 C 1523.0314,1358.148 1538.4968,1334.2786 1562.1429,1300.9336 C 1563.5715,1297.3622 1565,1299.505 1565,1299.505 C 1547.6403,1304.5928 1525.2364,1300.5386 1520.7143,1288.7908 C 1521.2663,1277.9304 1525.0109,1261.8872 1522.8571,1261.6479 L 1512.8571,1261.6479 C 1514.1083,1262.9201 1513.4311,1296.5076 1512.8571,1298.7908 C 1512.1605,1301.5617 1500,1315.9336 1500,1315.9336 C 1459.1163,1351.6402 1463.504,1382.3167 1454.2857,1414.505 C 1463.174,1382.2387 1459.3127,1349.9665 1500,1315.9336 C 1484.7028,1316.4065 1468.5531,1324.4135 1455,1310.9336 L 1453.5714,1275.2193 L 1443.5714,1275.2193 L 1445,1311.6479 L 1439.2857,1325.9336 C 1403.4486,1359.9031 1406.5531,1381.3458 1385.7143,1427.3622 C 1405.0061,1370.8588 1420.934,1341.3686 1438.5714,1324.505 C 1423.1996,1325.4421 1408.0141,1331.545 1397.8571,1323.7908 L 1384.2857,1290.9336 L 1375.7143,1295.2193 z "
             style="fill:white;fill-opacity:1;fill-rule:evenodd;stroke:black;stroke-width:3;stroke-linecap:butt;stroke-linejoin:miter;stroke-miterlimit:4;stroke-dasharray:none;stroke-opacity:1" />
          <path
             sodipodi:nodetypes="czzccccczcz"
             id="path1994"
             d="M 1236.312,1408.0765 C 1207.7847,1407.2189 1199.3268,1382.0702 1208.787,1361.0915 C 1218.2472,1340.1128 1266.917,1326.7515 1291.8594,1356.5211 C 1316.8018,1386.2907 1310.7067,1416.1916 1268.5714,1480.9336 C 1206.3705,1555.325 1216.8548,1635.8962 1285.2624,1701.1066 C 1304.8119,1718.1695 1337.9949,1736.6434 1358.0812,1751.0351 C 1300.5613,1729.8817 1235.99,1698.8115 1201.4286,1645.2194 C 1162.7611,1569.1625 1181.3339,1502.4749 1243.8267,1442.9744 C 1257.4159,1425.6283 1275.49,1403.2235 1263.5793,1378.8567 C 1251.6686,1354.4899 1204.4634,1378.4726 1236.312,1391.8742 C 1251.6485,1373.7742 1264.8393,1408.9341 1236.312,1408.0765 z "
             style="fill:#fcef3c;fill-opacity:1;fill-rule:evenodd;stroke:black;stroke-width:3;stroke-linecap:butt;stroke-linejoin:miter;stroke-miterlimit:4;stroke-dasharray:none;stroke-opacity:1" />
          <g
             id="g6666">
            <rect
               style="opacity:1;fill:#fcef3c;fill-opacity:1;fill-rule:evenodd;stroke:black;stroke-width:3.00000024;stroke-linecap:round;stroke-linejoin:round;stroke-miterlimit:4;stroke-dasharray:none;stroke-dashoffset:0;stroke-opacity:1"
               id="rect4834"
               width="524.26923"
               height="16.162443"
               x="1010.4949"
               y="1565.1708"
               transform="matrix(0.973893,-0.227008,0.227008,0.973893,0,0)"
               inkscape:transform-center-x="-15.152288"
               inkscape:transform-center-y="19.192898" />
            <path
               transform="translate(-257.7325,134.2785)"
               sodipodi:open="true"
               sodipodi:end="8.2424464"
               sodipodi:start="1.9974614"
               d="M 1588.7924,1181.7317 A 15,15 0 1 1 1589.3185,1181.9588"
               sodipodi:ry="15"
               sodipodi:rx="15"
               sodipodi:cy="1168.0764"
               sodipodi:cx="1595"
               id="path4836"
               style="opacity:1;fill:#fcef3c;fill-opacity:1;fill-rule:evenodd;stroke:black;stroke-width:3;stroke-linecap:round;stroke-linejoin:round;stroke-miterlimit:4;stroke-dasharray:none;stroke-dashoffset:0;stroke-opacity:1"
               sodipodi:type="arc" />
            <path
               sodipodi:type="arc"
               style="opacity:1;fill:#fcef3c;fill-opacity:1;fill-rule:evenodd;stroke:black;stroke-width:3;stroke-linecap:round;stroke-linejoin:round;stroke-miterlimit:4;stroke-dasharray:none;stroke-dashoffset:0;stroke-opacity:1"
               id="path4838"
               sodipodi:cx="1595"
               sodipodi:cy="1168.0764"
               sodipodi:rx="15"
               sodipodi:ry="15"
               d="M 1588.7924,1181.7317 A 15,15 0 1 1 1589.3185,1181.9588"
               sodipodi:start="1.9974614"
               sodipodi:end="8.2424464"
               sodipodi:open="true"
               transform="translate(253.4047,16.09065)" />
          </g>
          <path
             sodipodi:nodetypes="csccccccc"
             id="path1996"
             d="M 1817.0115,1720.6885 C 1886.9401,1671.7688 1917.6842,1644.1484 1922.8571,1590.9336 C 1926.3931,1554.5576 1897.2913,1546.5449 1889.2388,1528.1375 C 1879.478,1480.1482 1885.4991,1418.0818 1924.2856,1383.7908 C 1931.9171,1380.5982 1941.4285,1383.7908 1950,1383.7908 C 1949.6053,1388.6024 1950.7707,1398.1502 1949.4536,1402.5265 C 1919.2018,1401.3628 1911.9806,1455.7071 1913.1867,1498.7029 C 1914.811,1525.1255 1937.6286,1516.695 1952.612,1533.6174 C 1983.1318,1616.2145 1909.3371,1709.9635 1817.0115,1720.6885 z "
             style="fill:#fcef3c;fill-opacity:1;fill-rule:evenodd;stroke:black;stroke-width:3;stroke-linecap:butt;stroke-linejoin:miter;stroke-miterlimit:4;stroke-dasharray:none;stroke-opacity:1" />
          <g
             id="g6652">
            <g
               id="g6640">
              <path
                 sodipodi:nodetypes="czscszzsc"
                 id="path2911"
                 d="M 1228.5189,1549.8474 C 1228.5189,1545.4059 1274.3699,1577.2522 1375.9504,1595.1607 C 1477.5308,1613.0692 1693.5424,1629.2909 1854.6401,1577.3964 C 1892.3117,1565.2612 1913.6474,1554.8264 1913.6474,1554.8264 C 1933.3711,1574.6927 1924.6065,1593.1341 1921.3101,1612.9968 C 1915.0373,1650.7937 1877.2885,1684.5073 1830.3964,1714.0121 C 1781.1434,1745.0024 1386.5855,1766.0287 1349.5638,1746.337 C 1312.5421,1726.6453 1242.4794,1689.1069 1224.3049,1592.7938 C 1220.9219,1574.8661 1221.3895,1565.4292 1228.5189,1549.8474 z "
                 style="fill:#fcef3c;fill-opacity:1;fill-rule:evenodd;stroke:black;stroke-width:3;stroke-linecap:butt;stroke-linejoin:miter;stroke-miterlimit:4;stroke-dasharray:none;stroke-opacity:1" />
              <g
                 id="g6630">
                <path
                   style="fill:none;fill-opacity:0.75;fill-rule:evenodd;stroke:black;stroke-width:3;stroke-linecap:butt;stroke-linejoin:miter;stroke-miterlimit:4;stroke-dasharray:none;stroke-opacity:1"
                   d="M 1222.2846,1578.6516 C 1299.8167,1605.8151 1363.5203,1625.5029 1457.6501,1635.2201 C 1550.6815,1644.824 1635.4158,1640.9629 1721.2999,1632.1896 C 1806.7635,1623.4592 1857.8365,1607.0908 1924.6844,1582.7579"
                   id="path5727"
                   sodipodi:nodetypes="czzs" />
                <path
                   style="fill:none;fill-opacity:0.75;fill-rule:evenodd;stroke:black;stroke-width:3;stroke-linecap:butt;stroke-linejoin:miter;stroke-miterlimit:4;stroke-dasharray:none;stroke-opacity:1"
                   d="M 1224.4275,1597.6857 C 1301.9596,1624.8492 1363.5203,1643.1084 1457.6501,1652.8256 C 1550.6815,1662.4295 1635.4158,1658.5684 1721.2999,1649.7951 C 1805.8948,1641.1534 1856.7947,1625.0283 1922.6508,1601.1029"
                   id="path6616"
                   sodipodi:nodetypes="czzs" />
                <path
                   style="fill:none;fill-opacity:0.75;fill-rule:evenodd;stroke:black;stroke-width:3;stroke-linecap:butt;stroke-linejoin:miter;stroke-miterlimit:4;stroke-dasharray:none;stroke-opacity:1"
                   d="M 1230.7757,1616.4748 C 1304.9794,1642.2893 1367.5749,1661.0283 1458.6603,1670.4312 C 1551.6917,1680.0351 1636.426,1676.174 1722.3101,1667.4007 C 1805.0305,1658.9505 1855.5326,1643.3448 1919.3047,1620.2875"
                   id="path6618"
                   sodipodi:nodetypes="czzs" />
                <path
                   style="fill:none;fill-opacity:0.75;fill-rule:evenodd;stroke:black;stroke-width:3;stroke-linecap:butt;stroke-linejoin:miter;stroke-miterlimit:4;stroke-dasharray:none;stroke-opacity:1"
                   d="M 1237.8124,1636.1698 C 1309.4138,1660.9067 1371.0611,1678.8894 1459.6704,1688.0367 C 1552.7018,1697.6406 1637.4361,1693.7795 1723.3202,1685.0062 C 1800.8642,1677.0848 1850.0961,1662.8754 1908.4877,1642.134"
                   id="path6620"
                   sodipodi:nodetypes="czzs" />
                <path
                   style="fill:none;fill-opacity:0.75;fill-rule:evenodd;stroke:black;stroke-width:3;stroke-linecap:butt;stroke-linejoin:miter;stroke-miterlimit:4;stroke-dasharray:none;stroke-opacity:1"
                   d="M 1248.0069,1656.9287 C 1315.7755,1680.0424 1375.8815,1696.8882 1460.6806,1705.6422 C 1553.712,1715.2461 1638.4463,1711.385 1724.3304,1702.6117 C 1793.676,1695.5278 1840.3796,1683.4152 1891.2401,1666.0995"
                   id="path6622"
                   sodipodi:nodetypes="czzs" />
                <path
                   style="fill:none;fill-opacity:0.75;fill-rule:evenodd;stroke:black;stroke-width:3;stroke-linecap:butt;stroke-linejoin:miter;stroke-miterlimit:4;stroke-dasharray:none;stroke-opacity:1"
                   d="M 1261.9927,1679.2475 C 1324.2225,1699.9433 1381.7565,1715.1003 1460.6806,1723.2478 C 1553.712,1732.8517 1638.4463,1728.9906 1724.3304,1720.2173 C 1778.9503,1714.6377 1819.5233,1705.9383 1859.1448,1694.034"
                   id="path6624"
                   sodipodi:nodetypes="czzs" />
                <path
                   style="fill:none;fill-opacity:0.75;fill-rule:evenodd;stroke:black;stroke-width:3;stroke-linecap:butt;stroke-linejoin:miter;stroke-miterlimit:4;stroke-dasharray:none;stroke-opacity:1"
                   d="M 1285.709,1704.5237 C 1339.2992,1721.3136 1391.8572,1734.4628 1460.6806,1741.5676 C 1516.8137,1747.3624 1569.9262,1748.255 1622.0931,1746.1243"
                   id="path6626"
                   sodipodi:nodetypes="czs" />
                <path
                   style="fill:none;fill-opacity:0.75;fill-rule:evenodd;stroke:black;stroke-width:3;stroke-linecap:butt;stroke-linejoin:miter;stroke-miterlimit:4;stroke-dasharray:none;stroke-opacity:1"
                   d="M 1327.8844,1734.3997 C 1357.151,1742.1938 1387.4353,1748.6455 1421.4555,1753.6014"
                   id="path6628"
                   sodipodi:nodetypes="cs" />
              </g>
            </g>
            <path
               style="fill:#fcef3c;fill-opacity:1;fill-rule:evenodd;stroke:black;stroke-width:2.82137918;stroke-linecap:butt;stroke-linejoin:miter;stroke-miterlimit:4;stroke-dasharray:none;stroke-opacity:1"
               d="M 1229.2377,1541.1867 C 1264.9048,1559.2012 1311.1203,1572.8034 1362.75,1583.5732 C 1503.5626,1612.9463 1668.2136,1613.9386 1785.6422,1587.4288 C 1836.785,1575.8832 1882.7816,1564.7583 1917.1783,1547.4393 C 1927.569,1551.7341 1929.2608,1557.1823 1928.8632,1566.1968 C 1884.2824,1581.4742 1836.4758,1596.4906 1786.9397,1605.6429 C 1648.5782,1631.2066 1496.2327,1631.9261 1359.7648,1602.4849 C 1310.9326,1591.9499 1264.1335,1577.5532 1220.7354,1559.0511 C 1218.1807,1553.0963 1221.0147,1547.1415 1229.2377,1541.1867 z "
               id="path4840"
               sodipodi:nodetypes="cssccsscc" />
          </g>
          <g
             id="g4804">
            <g
               id="g3804"
               style="stroke:black;stroke-width:3;stroke-miterlimit:4;stroke-dasharray:none;stroke-opacity:1"
               transform="matrix(0.905997,0,0,0.958983,123.6298,68.66402)">
              <path
                 transform="matrix(1.036826,0,0,0.999543,-87.19573,0.737049)"
                 sodipodi:open="true"
                 sodipodi:end="8.2424464"
                 sodipodi:start="1.9974614"
                 d="M 1377.289,1666.288 A 40.406101,59.093925 0 1 1 1378.706,1667.1828"
                 sodipodi:ry="59.093925"
                 sodipodi:rx="40.406101"
                 sodipodi:cy="1612.4918"
                 sodipodi:cx="1394.0105"
                 id="path3798"
                 style="opacity:1;fill:#fcef3c;fill-opacity:1;fill-rule:evenodd;stroke:black;stroke-width:2.94691467;stroke-linecap:round;stroke-linejoin:round;stroke-miterlimit:4;stroke-dasharray:none;stroke-dashoffset:0;stroke-opacity:1"
                 sodipodi:type="arc" />
              <path
                 sodipodi:type="arc"
                 style="opacity:1;fill:#fcef3c;fill-opacity:1;fill-rule:evenodd;stroke:black;stroke-width:4.92257738;stroke-linecap:round;stroke-linejoin:round;stroke-miterlimit:4;stroke-dasharray:none;stroke-dashoffset:0;stroke-opacity:1"
                 id="path3800"
                 sodipodi:cx="1394.0105"
                 sodipodi:cy="1612.4918"
                 sodipodi:rx="40.406101"
                 sodipodi:ry="59.093925"
                 d="M 1377.289,1666.288 A 40.406101,59.093925 0 1 1 1378.706,1667.1828"
                 sodipodi:start="1.9974614"
                 sodipodi:end="8.2424464"
                 sodipodi:open="true"
                 transform="matrix(0.620699,0,0,0.598379,506.7748,647.6155)" />
              <path
                 transform="matrix(0.270999,0,0,0.261254,1005.877,1191.231)"
                 sodipodi:open="true"
                 sodipodi:end="8.2424464"
                 sodipodi:start="1.9974614"
                 d="M 1377.289,1666.288 A 40.406101,59.093925 0 1 1 1378.706,1667.1828"
                 sodipodi:ry="59.093925"
                 sodipodi:rx="40.406101"
                 sodipodi:cy="1612.4918"
                 sodipodi:cx="1394.0105"
                 id="path3802"
                 style="opacity:1;fill:#fcef3c;fill-opacity:1;fill-rule:evenodd;stroke:black;stroke-width:11.27472401;stroke-linecap:round;stroke-linejoin:round;stroke-miterlimit:4;stroke-dasharray:none;stroke-dashoffset:0;stroke-opacity:1"
                 sodipodi:type="arc" />
            </g>
            <g
               id="g4750"
               style="stroke:black;stroke-width:3;stroke-miterlimit:4;stroke-dasharray:none;stroke-opacity:1"
               transform="matrix(0.905997,0,0,0.958983,199.8963,81.79601)">
              <path
                 transform="matrix(1.036826,0,0,0.999543,-87.19573,0.737049)"
                 sodipodi:open="true"
                 sodipodi:end="8.2424464"
                 sodipodi:start="1.9974614"
                 d="M 1377.289,1666.288 A 40.406101,59.093925 0 1 1 1378.706,1667.1828"
                 sodipodi:ry="59.093925"
                 sodipodi:rx="40.406101"
                 sodipodi:cy="1612.4918"
                 sodipodi:cx="1394.0105"
                 id="path4752"
                 style="opacity:1;fill:#fcef3c;fill-opacity:1;fill-rule:evenodd;stroke:black;stroke-width:2.94691467;stroke-linecap:round;stroke-linejoin:round;stroke-miterlimit:4;stroke-dasharray:none;stroke-dashoffset:0;stroke-opacity:1"
                 sodipodi:type="arc" />
              <path
                 sodipodi:type="arc"
                 style="opacity:1;fill:#fcef3c;fill-opacity:1;fill-rule:evenodd;stroke:black;stroke-width:4.92257738;stroke-linecap:round;stroke-linejoin:round;stroke-miterlimit:4;stroke-dasharray:none;stroke-dashoffset:0;stroke-opacity:1"
                 id="path4754"
                 sodipodi:cx="1394.0105"
                 sodipodi:cy="1612.4918"
                 sodipodi:rx="40.406101"
                 sodipodi:ry="59.093925"
                 d="M 1377.289,1666.288 A 40.406101,59.093925 0 1 1 1378.706,1667.1828"
                 sodipodi:start="1.9974614"
                 sodipodi:end="8.2424464"
                 sodipodi:open="true"
                 transform="matrix(0.620699,0,0,0.598379,506.7748,647.6155)" />
              <path
                 transform="matrix(0.270999,0,0,0.261254,1005.877,1191.231)"
                 sodipodi:open="true"
                 sodipodi:end="8.2424464"
                 sodipodi:start="1.9974614"
                 d="M 1377.289,1666.288 A 40.406101,59.093925 0 1 1 1378.706,1667.1828"
                 sodipodi:ry="59.093925"
                 sodipodi:rx="40.406101"
                 sodipodi:cy="1612.4918"
                 sodipodi:cx="1394.0105"
                 id="path4756"
                 style="opacity:1;fill:#fcef3c;fill-opacity:1;fill-rule:evenodd;stroke:black;stroke-width:11.27472401;stroke-linecap:round;stroke-linejoin:round;stroke-miterlimit:4;stroke-dasharray:none;stroke-dashoffset:0;stroke-opacity:1"
                 sodipodi:type="arc" />
            </g>
            <g
               id="g4758"
               style="stroke:black;stroke-width:3;stroke-miterlimit:4;stroke-dasharray:none;stroke-opacity:1"
               transform="matrix(0.905997,0,0,0.958983,276.1628,88.86707)">
              <path
                 transform="matrix(1.036826,0,0,0.999543,-87.19573,0.737049)"
                 sodipodi:open="true"
                 sodipodi:end="8.2424464"
                 sodipodi:start="1.9974614"
                 d="M 1377.289,1666.288 A 40.406101,59.093925 0 1 1 1378.706,1667.1828"
                 sodipodi:ry="59.093925"
                 sodipodi:rx="40.406101"
                 sodipodi:cy="1612.4918"
                 sodipodi:cx="1394.0105"
                 id="path4760"
                 style="opacity:1;fill:#fcef3c;fill-opacity:1;fill-rule:evenodd;stroke:black;stroke-width:2.94691467;stroke-linecap:round;stroke-linejoin:round;stroke-miterlimit:4;stroke-dasharray:none;stroke-dashoffset:0;stroke-opacity:1"
                 sodipodi:type="arc" />
              <path
                 sodipodi:type="arc"
                 style="opacity:1;fill:#fcef3c;fill-opacity:1;fill-rule:evenodd;stroke:black;stroke-width:4.92257738;stroke-linecap:round;stroke-linejoin:round;stroke-miterlimit:4;stroke-dasharray:none;stroke-dashoffset:0;stroke-opacity:1"
                 id="path4762"
                 sodipodi:cx="1394.0105"
                 sodipodi:cy="1612.4918"
                 sodipodi:rx="40.406101"
                 sodipodi:ry="59.093925"
                 d="M 1377.289,1666.288 A 40.406101,59.093925 0 1 1 1378.706,1667.1828"
                 sodipodi:start="1.9974614"
                 sodipodi:end="8.2424464"
                 sodipodi:open="true"
                 transform="matrix(0.620699,0,0,0.598379,506.7748,647.6155)" />
              <path
                 transform="matrix(0.270999,0,0,0.261254,1005.877,1191.231)"
                 sodipodi:open="true"
                 sodipodi:end="8.2424464"
                 sodipodi:start="1.9974614"
                 d="M 1377.289,1666.288 A 40.406101,59.093925 0 1 1 1378.706,1667.1828"
                 sodipodi:ry="59.093925"
                 sodipodi:rx="40.406101"
                 sodipodi:cy="1612.4918"
                 sodipodi:cx="1394.0105"
                 id="path4764"
                 style="opacity:1;fill:#fcef3c;fill-opacity:1;fill-rule:evenodd;stroke:black;stroke-width:11.27472401;stroke-linecap:round;stroke-linejoin:round;stroke-miterlimit:4;stroke-dasharray:none;stroke-dashoffset:0;stroke-opacity:1"
                 sodipodi:type="arc" />
            </g>
            <g
               id="g4766"
               style="stroke:black;stroke-width:3;stroke-miterlimit:4;stroke-dasharray:none;stroke-opacity:1"
               transform="matrix(0.905997,0,0,0.958983,352.4292,93.91783)">
              <path
                 transform="matrix(1.036826,0,0,0.999543,-87.19573,0.737049)"
                 sodipodi:open="true"
                 sodipodi:end="8.2424464"
                 sodipodi:start="1.9974614"
                 d="M 1377.289,1666.288 A 40.406101,59.093925 0 1 1 1378.706,1667.1828"
                 sodipodi:ry="59.093925"
                 sodipodi:rx="40.406101"
                 sodipodi:cy="1612.4918"
                 sodipodi:cx="1394.0105"
                 id="path4768"
                 style="opacity:1;fill:#fcef3c;fill-opacity:1;fill-rule:evenodd;stroke:black;stroke-width:2.94691467;stroke-linecap:round;stroke-linejoin:round;stroke-miterlimit:4;stroke-dasharray:none;stroke-dashoffset:0;stroke-opacity:1"
                 sodipodi:type="arc" />
              <path
                 sodipodi:type="arc"
                 style="opacity:1;fill:#fcef3c;fill-opacity:1;fill-rule:evenodd;stroke:black;stroke-width:4.92257738;stroke-linecap:round;stroke-linejoin:round;stroke-miterlimit:4;stroke-dasharray:none;stroke-dashoffset:0;stroke-opacity:1"
                 id="path4770"
                 sodipodi:cx="1394.0105"
                 sodipodi:cy="1612.4918"
                 sodipodi:rx="40.406101"
                 sodipodi:ry="59.093925"
                 d="M 1377.289,1666.288 A 40.406101,59.093925 0 1 1 1378.706,1667.1828"
                 sodipodi:start="1.9974614"
                 sodipodi:end="8.2424464"
                 sodipodi:open="true"
                 transform="matrix(0.620699,0,0,0.598379,506.7748,647.6155)" />
              <path
                 transform="matrix(0.270999,0,0,0.261254,1005.877,1191.231)"
                 sodipodi:open="true"
                 sodipodi:end="8.2424464"
                 sodipodi:start="1.9974614"
                 d="M 1377.289,1666.288 A 40.406101,59.093925 0 1 1 1378.706,1667.1828"
                 sodipodi:ry="59.093925"
                 sodipodi:rx="40.406101"
                 sodipodi:cy="1612.4918"
                 sodipodi:cx="1394.0105"
                 id="path4772"
                 style="opacity:1;fill:#fcef3c;fill-opacity:1;fill-rule:evenodd;stroke:black;stroke-width:11.27472401;stroke-linecap:round;stroke-linejoin:round;stroke-miterlimit:4;stroke-dasharray:none;stroke-dashoffset:0;stroke-opacity:1"
                 sodipodi:type="arc" />
            </g>
            <g
               id="g4774"
               style="stroke:black;stroke-width:3;stroke-miterlimit:4;stroke-dasharray:none;stroke-opacity:1"
               transform="matrix(0.905997,0,0,0.958983,428.6957,86.84678)">
              <path
                 transform="matrix(1.036826,0,0,0.999543,-87.19573,0.737049)"
                 sodipodi:open="true"
                 sodipodi:end="8.2424464"
                 sodipodi:start="1.9974614"
                 d="M 1377.289,1666.288 A 40.406101,59.093925 0 1 1 1378.706,1667.1828"
                 sodipodi:ry="59.093925"
                 sodipodi:rx="40.406101"
                 sodipodi:cy="1612.4918"
                 sodipodi:cx="1394.0105"
                 id="path4776"
                 style="opacity:1;fill:#fcef3c;fill-opacity:1;fill-rule:evenodd;stroke:black;stroke-width:2.94691467;stroke-linecap:round;stroke-linejoin:round;stroke-miterlimit:4;stroke-dasharray:none;stroke-dashoffset:0;stroke-opacity:1"
                 sodipodi:type="arc" />
              <path
                 sodipodi:type="arc"
                 style="opacity:1;fill:#fcef3c;fill-opacity:1;fill-rule:evenodd;stroke:black;stroke-width:4.92257738;stroke-linecap:round;stroke-linejoin:round;stroke-miterlimit:4;stroke-dasharray:none;stroke-dashoffset:0;stroke-opacity:1"
                 id="path4778"
                 sodipodi:cx="1394.0105"
                 sodipodi:cy="1612.4918"
                 sodipodi:rx="40.406101"
                 sodipodi:ry="59.093925"
                 d="M 1377.289,1666.288 A 40.406101,59.093925 0 1 1 1378.706,1667.1828"
                 sodipodi:start="1.9974614"
                 sodipodi:end="8.2424464"
                 sodipodi:open="true"
                 transform="matrix(0.620699,0,0,0.598379,506.7748,647.6155)" />
              <path
                 transform="matrix(0.270999,0,0,0.261254,1005.877,1191.231)"
                 sodipodi:open="true"
                 sodipodi:end="8.2424464"
                 sodipodi:start="1.9974614"
                 d="M 1377.289,1666.288 A 40.406101,59.093925 0 1 1 1378.706,1667.1828"
                 sodipodi:ry="59.093925"
                 sodipodi:rx="40.406101"
                 sodipodi:cy="1612.4918"
                 sodipodi:cx="1394.0105"
                 id="path4780"
                 style="opacity:1;fill:#fcef3c;fill-opacity:1;fill-rule:evenodd;stroke:black;stroke-width:11.27472401;stroke-linecap:round;stroke-linejoin:round;stroke-miterlimit:4;stroke-dasharray:none;stroke-dashoffset:0;stroke-opacity:1"
                 sodipodi:type="arc" />
            </g>
            <g
               id="g4782"
               style="stroke:black;stroke-width:3;stroke-miterlimit:4;stroke-dasharray:none;stroke-opacity:1"
               transform="matrix(0.905997,0,0,0.958983,504.9622,82.80617)">
              <path
                 transform="matrix(1.036826,0,0,0.999543,-87.19573,0.737049)"
                 sodipodi:open="true"
                 sodipodi:end="8.2424464"
                 sodipodi:start="1.9974614"
                 d="M 1377.289,1666.288 A 40.406101,59.093925 0 1 1 1378.706,1667.1828"
                 sodipodi:ry="59.093925"
                 sodipodi:rx="40.406101"
                 sodipodi:cy="1612.4918"
                 sodipodi:cx="1394.0105"
                 id="path4784"
                 style="opacity:1;fill:#fcef3c;fill-opacity:1;fill-rule:evenodd;stroke:black;stroke-width:2.94691467;stroke-linecap:round;stroke-linejoin:round;stroke-miterlimit:4;stroke-dasharray:none;stroke-dashoffset:0;stroke-opacity:1"
                 sodipodi:type="arc" />
              <path
                 sodipodi:type="arc"
                 style="opacity:1;fill:#fcef3c;fill-opacity:1;fill-rule:evenodd;stroke:black;stroke-width:4.92257738;stroke-linecap:round;stroke-linejoin:round;stroke-miterlimit:4;stroke-dasharray:none;stroke-dashoffset:0;stroke-opacity:1"
                 id="path4786"
                 sodipodi:cx="1394.0105"
                 sodipodi:cy="1612.4918"
                 sodipodi:rx="40.406101"
                 sodipodi:ry="59.093925"
                 d="M 1377.289,1666.288 A 40.406101,59.093925 0 1 1 1378.706,1667.1828"
                 sodipodi:start="1.9974614"
                 sodipodi:end="8.2424464"
                 sodipodi:open="true"
                 transform="matrix(0.620699,0,0,0.598379,506.7748,647.6155)" />
              <path
                 transform="matrix(0.270999,0,0,0.261254,1005.877,1191.231)"
                 sodipodi:open="true"
                 sodipodi:end="8.2424464"
                 sodipodi:start="1.9974614"
                 d="M 1377.289,1666.288 A 40.406101,59.093925 0 1 1 1378.706,1667.1828"
                 sodipodi:ry="59.093925"
                 sodipodi:rx="40.406101"
                 sodipodi:cy="1612.4918"
                 sodipodi:cx="1394.0105"
                 id="path4788"
                 style="opacity:1;fill:#fcef3c;fill-opacity:1;fill-rule:evenodd;stroke:black;stroke-width:11.27472401;stroke-linecap:round;stroke-linejoin:round;stroke-miterlimit:4;stroke-dasharray:none;stroke-dashoffset:0;stroke-opacity:1"
                 sodipodi:type="arc" />
            </g>
            <g
               id="g4790"
               style="stroke:black;stroke-width:3;stroke-miterlimit:4;stroke-dasharray:none;stroke-opacity:1"
               transform="matrix(0.905997,0,0,0.958983,581.2287,70.68434)">
              <path
                 transform="matrix(1.036826,0,0,0.999543,-87.19573,0.737049)"
                 sodipodi:open="true"
                 sodipodi:end="8.2424464"
                 sodipodi:start="1.9974614"
                 d="M 1377.289,1666.288 A 40.406101,59.093925 0 1 1 1378.706,1667.1828"
                 sodipodi:ry="59.093925"
                 sodipodi:rx="40.406101"
                 sodipodi:cy="1612.4918"
                 sodipodi:cx="1394.0105"
                 id="path4792"
                 style="opacity:1;fill:#fcef3c;fill-opacity:1;fill-rule:evenodd;stroke:black;stroke-width:2.94691467;stroke-linecap:round;stroke-linejoin:round;stroke-miterlimit:4;stroke-dasharray:none;stroke-dashoffset:0;stroke-opacity:1"
                 sodipodi:type="arc" />
              <path
                 sodipodi:type="arc"
                 style="opacity:1;fill:#fcef3c;fill-opacity:1;fill-rule:evenodd;stroke:black;stroke-width:4.92257738;stroke-linecap:round;stroke-linejoin:round;stroke-miterlimit:4;stroke-dasharray:none;stroke-dashoffset:0;stroke-opacity:1"
                 id="path4794"
                 sodipodi:cx="1394.0105"
                 sodipodi:cy="1612.4918"
                 sodipodi:rx="40.406101"
                 sodipodi:ry="59.093925"
                 d="M 1377.289,1666.288 A 40.406101,59.093925 0 1 1 1378.706,1667.1828"
                 sodipodi:start="1.9974614"
                 sodipodi:end="8.2424464"
                 sodipodi:open="true"
                 transform="matrix(0.620699,0,0,0.598379,506.7748,647.6155)" />
              <path
                 transform="matrix(0.270999,0,0,0.261254,1005.877,1191.231)"
                 sodipodi:open="true"
                 sodipodi:end="8.2424464"
                 sodipodi:start="1.9974614"
                 d="M 1377.289,1666.288 A 40.406101,59.093925 0 1 1 1378.706,1667.1828"
                 sodipodi:ry="59.093925"
                 sodipodi:rx="40.406101"
                 sodipodi:cy="1612.4918"
                 sodipodi:cx="1394.0105"
                 id="path4796"
                 style="opacity:1;fill:#fcef3c;fill-opacity:1;fill-rule:evenodd;stroke:black;stroke-width:11.27472401;stroke-linecap:round;stroke-linejoin:round;stroke-miterlimit:4;stroke-dasharray:none;stroke-dashoffset:0;stroke-opacity:1"
                 sodipodi:type="arc" />
            </g>
          </g>
        </g>
      </g>
    </g>
  </g>
</svg>
