<?xml version="1.0" encoding="utf-8"?>
<!-- Generator: Adobe Illustrator 16.0.0, SVG Export Plug-In . SVG Version: 6.00 Build 0)  -->
<!DOCTYPE svg PUBLIC "-//W3C//DTD SVG 1.1//EN" "http://www.w3.org/Graphics/SVG/1.1/DTD/svg11.dtd">
<svg version="1.1"
	 id="svg2010" xmlns:dc="http://purl.org/dc/elements/1.1/" xmlns:cc="http://web.resource.org/cc/" xmlns:rdf="http://www.w3.org/1999/02/22-rdf-syntax-ns#" xmlns:svg="http://www.w3.org/2000/svg" xmlns:sodipodi="http://sodipodi.sourceforge.net/DTD/sodipodi-0.dtd" xmlns:inkscape="http://www.inkscape.org/namespaces/inkscape" sodipodi:docbase="C:\Documents and Settings\Standard\Mes documents\Ouiqui\Blasons" inkscape:version="0.44.1" sodipodi:version="0.32" sodipodi:docname="Héraldique_meuble_Drakkar.svg"
	 xmlns="http://www.w3.org/2000/svg" xmlns:xlink="http://www.w3.org/1999/xlink" x="0px" y="0px" width="841.891px"
	 height="595.275px" viewBox="0 0 841.891 595.275" enable-background="new 0 0 841.891 595.275" xml:space="preserve">
<g id="layer1" inkscape:label="Layer 1" inkscape:groupmode="layer">
	<g id="g2103" transform="matrix(1.188106,0,0,1.188106,86.8707,-322.4038)" inkscape:label="Drakkar">
		<g id="g9699" transform="matrix(0.90174,0,0,0.90174,-1045.749,-720.4812)">
			<g id="g8810">
				<path id="path8806" fill="none" stroke="#000000" stroke-width="3" d="M1736.453,1476.272l-257.154-260.309l222.447,269.776"/>
				<path id="path8808" fill="none" stroke="#000000" stroke-width="3" d="M1480.877,1215.963l276.086,242.955"/>
			</g>
			<g id="g8748">
				<g id="g7655" transform="translate(0,8)">
					<path id="path6764" sodipodi:nodetypes="ccccc" fill="#FFFFFF" stroke="#000000" stroke-width="3" d="M1472.989,1179.502
						c-26.286-12.674-49.958-6.841-74.937-7.099l20.087-25.146c6.218-8.401,38.294-8.955,56.428,7.792L1472.989,1179.502z"/>
					<path id="path6766" sodipodi:nodetypes="ccccc" fill="#FFFFFF" stroke="#000000" stroke-width="3" d="M1397.262,1167.67
						l21.53-20.932c-6.887,14.527,26.387,22.081,18.931,31.553l-20.74,23.297C1422.119,1191.41,1390.625,1180.679,1397.262,1167.67z
						"/>
					<path id="path6768" sodipodi:nodetypes="ccccc" fill="#FFFFFF" stroke="#000000" stroke-width="3" d="M1418.656,1201.024
						l17.124-19.546c-9.715,12.653-73.221-10.101-78.978,16.199v14.988C1367.229,1194.385,1413.28,1207.68,1418.656,1201.024z"/>
				</g>
				<g id="g6671">
					
						<path id="rect2908" sodipodi:nodetypes="ccccc" fill="#8A5F00" stroke="#000000" stroke-width="4.0981" stroke-linecap="round" stroke-linejoin="round" d="
						M1470.628,1157.435h11.414l8.924,433.65h-27.7L1470.628,1157.435z"/>
					
						<path id="path2906" sodipodi:open="true" sodipodi:end="8.2424464" sodipodi:start="1.9974614" sodipodi:ry="15" sodipodi:rx="15" sodipodi:cy="1168.0764" sodipodi:cx="1595" sodipodi:type="arc" fill="#8A5F00" stroke="#000000" stroke-width="3" stroke-linecap="round" stroke-linejoin="round" d="
						M1472.268,1161.533c-5.889-2.676-8.495-9.62-5.818-15.509c2.676-5.89,9.621-8.494,15.51-5.818
						c5.889,2.676,8.494,9.62,5.818,15.51c-2.605,5.731-9.273,8.379-15.099,5.995"/>
				</g>
				
					<path id="path7720_1_" sodipodi:nodetypes="cccccccccccccccccccccccccccsssccccccsscccccsccccccsccccccssccccccccccccc" fill="#FFFFFF" stroke="#000000" stroke-width="3" d="
					M1315.137,1255.732c5.505,12.319,16.16,26.207,6.693,32.908c-54.687,35.406-46.633,141.08,0.558,166.776l22.868,17.848
					c8.71,0.398,14.172,2.547,21.42,23.427h8.7c-3.102-11.022-7.492-14.644-5.02-39.603c-5.963,0.724-14.41-15.564-21.753-21.196
					c7.775,8.638,16.726,20.803,21.753,21.196c25.032,7.726,26.077,7.108,45.738-6.135c-11.526-5.763-20.239-14.139-22.869-22.869
					c4.591,11.666,13.976,16.94,22.869,22.869c22.525,4.425,46.998,11.38,55.22-2.788c-20.568-12.902-18.747-15.352-29.563-26.216
					c9.889,12.699,19.067,20.513,29.563,26.773c22.763,10.456,38.028,9.246,47.411-1.116c-13.953-3.739-20.394-12.843-23.985-23.984
					c6.015,14.778,12.961,20.694,23.985,24.542c23.865,11.666,37.618,10.33,51.315,8.924l5.579-2.789
					c-15.928-6.755-23.977-18.011-29.562-30.677c8.293,14.079,13.031,23.693,29.004,31.235c16.366,6.956,37.862,16.786,55.22,11.156
					c-11.854-7.319-17.798-16.075-26.774-27.331c6.955,12.673,31.725,34.498,34.583,31.235c4.559,1.169,8.853,1.275,16.287,13.945
					c0,0,10.486,1.115,8.255-3.905c-10.501-16.137-21.403-32.196-31.382-48.437c-36.326-59.131-42.78-157.424-8.22-197.543
					c17.556-20.38,17.905-19.449,20.08-21.195c5.937-4.768,12.205-29.912,9.482-29.004l2.231-5.578h-7.81
					c0,0-0.558,14.781-8.367,25.658c-9.107,10.479-24.87,24.363-40.16,17.291c-1.674-2.789-11.714-30.12-11.714-30.12
					s-6.135-2.789-6.135,0c0,2.789,6.694,23.147,5.021,25.657c-6.018,9.026-17.292,12.271-18.407,15.618
					c-20.918,29.485-27.44,56.57-30.677,83.109c2.985-26.558,9.442-53.404,30.12-81.436c-10.184,3.608-19.751,2.893-28.447-3.905
					c-5.008-6.005-4.138-16.418-3.346-26.773c0,0-11.055,0.249-8.925,1.116c2.218,0.903,7.021,21.379,1.674,25.657
					c-24.559,31.137-34.313,57.388-40.272,92.257c4.902-22.467,11.847-50.306,30.789-79.428c-10.598,3.764-20.08,9.276-30.678,4.462
					c-4.143,3.965-7.986-7.768-9.148-31.681l-7.362,2.23c0,0,0.196,14.81-0.781,24.989c-0.975,10.179-7.808,17.291-7.808,17.291
					c-24.594,26.608-28.369,43.252-33.467,78.646c1.252-33.968,13.328-52.607,31.794-78.646c1.116-2.788,2.23-1.115,2.23-1.115
					c-13.556,3.972-31.05,0.807-34.581-8.368c0.43-8.48,3.354-21.008,1.673-21.195h-7.809c0.977,0.993,0.448,27.221,0,29.004
					c-0.543,2.164-10.04,13.387-10.04,13.387c-31.925,27.883-28.499,51.838-35.698,76.974c6.941-25.196,3.926-50.397,35.698-76.974
					c-11.945,0.37-24.556,6.622-35.14-3.904l-1.115-27.889h-7.81l1.116,28.447l-4.462,11.155
					c-27.985,26.526-25.561,43.271-41.834,79.204c15.066-44.124,27.503-67.152,41.276-80.32
					c-12.004,0.732-23.862,5.497-31.794-0.558l-10.597-25.658L1315.137,1255.732z"/>
				<g>
					<polyline fill="#F41300" points="1529.529,1226.756 1515.782,1246.679 1500.211,1277.858 1490.966,1301.038 1487.379,1322.331 
						1486.11,1355.14 1486.11,1390.021 1494.741,1423.623 1502.724,1438.252 1517.721,1447.805 1540.553,1456.2 1554.531,1458.918 
						1575.061,1454.858 1562.28,1447.805 1550.395,1435.446 1543.55,1416.156 1536.489,1377.731 1536.489,1337.447 
						1538.186,1304.085 1546.782,1270.27 1564.06,1236.963 1554.531,1236.115 1543.228,1233.267 1534.216,1223.255 
						1534.399,1210.741 					"/>
					<polygon fill="#F41300" points="1422.76,1236.764 1422.23,1258.521 1412.19,1271.907 1395.222,1290.079 1385.394,1309.826 
						1379.881,1334.015 1375.864,1350.851 1375.864,1374.26 1380.518,1403.089 1393.226,1428.085 1402.955,1442.166 
						1416.095,1450.954 1444.949,1456.2 1459.87,1455.883 1471.315,1448.723 1452.7,1436.691 1436.309,1412.423 1427.201,1381.309 
						1428.924,1338.841 1437.417,1298.712 1447.287,1279.063 1460.717,1260.194 1438.819,1261.303 1429.677,1249.587 
						1430.253,1235.017 					"/>
					<polygon fill="#F41300" points="1317.852,1261.303 1325.838,1279.881 1324.057,1286.468 1308.56,1299.817 1293.154,1323.789 
						1283.837,1357.041 1285.113,1389.906 1292.724,1418.924 1304.837,1440.211 1315.476,1450.877 1329.816,1461.214 
						1345.616,1475.413 1370.088,1475.445 1370.357,1457.09 1348.604,1435.894 1333.226,1409.311 1325.838,1371.353 
						1326.435,1350.851 1341.518,1311.089 1354.387,1290.079 1364.222,1278.601 1335.715,1282.37 1324.057,1257.777 					"/>
				</g>
				
					<path id="path7720" sodipodi:nodetypes="cccccccccccccccccccccccccccsssccccccsscccccsccccccsccccccssccccccccccccc" fill="none" stroke="#000000" stroke-width="3" d="
					M1315.137,1255.732c5.505,12.319,16.16,26.207,6.693,32.908c-54.687,35.406-46.633,141.08,0.558,166.776l22.868,17.848
					c8.71,0.398,14.172,2.547,21.42,23.427h8.7c-3.102-11.022-7.492-14.644-5.02-39.603c-5.963,0.724-14.41-15.564-21.753-21.196
					c7.775,8.638,16.726,20.803,21.753,21.196c25.032,7.726,26.077,7.108,45.738-6.135c-11.526-5.763-20.239-14.139-22.869-22.869
					c4.591,11.666,13.976,16.94,22.869,22.869c22.525,4.425,46.998,11.38,55.22-2.788c-20.568-12.902-18.747-15.352-29.563-26.216
					c9.889,12.699,19.067,20.513,29.563,26.773c22.763,10.456,38.028,9.246,47.411-1.116c-13.953-3.739-20.394-12.843-23.985-23.984
					c6.015,14.778,12.961,20.694,23.985,24.542c23.865,11.666,37.618,10.33,51.315,8.924l5.579-2.789
					c-15.928-6.755-23.977-18.011-29.562-30.677c8.293,14.079,13.031,23.693,29.004,31.235c16.366,6.956,37.862,16.786,55.22,11.156
					c-11.854-7.319-17.798-16.075-26.774-27.331c6.955,12.673,31.725,34.498,34.583,31.235c4.559,1.169,8.853,1.275,16.287,13.945
					c0,0,10.486,1.115,8.255-3.905c-10.501-16.137-21.403-32.196-31.382-48.437c-36.326-59.131-42.78-157.424-8.22-197.543
					c17.556-20.38,17.905-19.449,20.08-21.195c5.937-4.768,12.205-29.912,9.482-29.004l2.231-5.578h-7.81
					c0,0-0.558,14.781-8.367,25.658c-9.107,10.479-24.87,24.363-40.16,17.291c-1.674-2.789-11.714-30.12-11.714-30.12
					s-6.135-2.789-6.135,0c0,2.789,6.694,23.147,5.021,25.657c-6.018,9.026-17.292,12.271-18.407,15.618
					c-20.918,29.485-27.44,56.57-30.677,83.109c2.985-26.558,9.442-53.404,30.12-81.436c-10.184,3.608-19.751,2.893-28.447-3.905
					c-5.008-6.005-4.138-16.418-3.346-26.773c0,0-11.055,0.249-8.925,1.116c2.218,0.903,7.021,21.379,1.674,25.657
					c-24.559,31.137-34.313,57.388-40.272,92.257c4.902-22.467,11.847-50.306,30.789-79.428c-10.598,3.764-20.08,9.276-30.678,4.462
					c-4.143,3.965-7.986-7.768-9.148-31.681l-7.362,2.23c0,0,0.196,14.81-0.781,24.989c-0.975,10.179-7.808,17.291-7.808,17.291
					c-24.594,26.608-28.369,43.252-33.467,78.646c1.252-33.968,13.328-52.607,31.794-78.646c1.116-2.788,2.23-1.115,2.23-1.115
					c-13.556,3.972-31.05,0.807-34.581-8.368c0.43-8.48,3.354-21.008,1.673-21.195h-7.809c0.977,0.993,0.448,27.221,0,29.004
					c-0.543,2.164-10.04,13.387-10.04,13.387c-31.925,27.883-28.499,51.838-35.698,76.974c6.941-25.196,3.926-50.397,35.698-76.974
					c-11.945,0.37-24.556,6.622-35.14-3.904l-1.115-27.889h-7.81l1.116,28.447l-4.462,11.155
					c-27.985,26.526-25.561,43.271-41.834,79.204c15.066-44.124,27.503-67.152,41.276-80.32
					c-12.004,0.732-23.862,5.497-31.794-0.558l-10.597-25.658L1315.137,1255.732z"/>
				<path id="path1994" sodipodi:nodetypes="czzccccczcz" fill="#8A5F00" stroke="#000000" stroke-width="3" d="M1206.28,1343.861
					c-22.277-0.67-28.882-20.308-21.494-36.69c7.387-16.382,45.393-26.816,64.87-3.569c19.477,23.246,14.718,46.596-18.185,97.151
					c-48.572,58.092-40.385,121.009,13.033,171.932c15.266,13.324,41.178,27.749,56.864,38.988
					c-44.917-16.519-95.34-40.781-122.328-82.631c-30.195-59.392-15.692-111.467,33.108-157.931
					c10.611-13.545,24.726-31.041,15.425-50.069c-9.301-19.028-46.163-0.3-21.292,10.166
					C1218.256,1317.075,1228.556,1344.531,1206.28,1343.861z"/>
				<g id="g6666">
					
						<rect id="rect4834" x="1282.884" y="1208.864" inkscape:transform-center-y="19.192898" inkscape:transform-center-x="-15.152288" transform="matrix(-0.9739 0.227 -0.227 -0.9739 3212.1819 2060.9314)" fill="#8A5F00" stroke="#000000" stroke-width="3" stroke-linecap="round" stroke-linejoin="round" width="409.396" height="12.621">
					</rect>
					
						<path id="path4836" sodipodi:open="true" sodipodi:end="8.2424464" sodipodi:start="1.9974614" sodipodi:ry="15" sodipodi:rx="15" sodipodi:cy="1168.0764" sodipodi:cx="1595" sodipodi:type="arc" fill="#8A5F00" stroke="#000000" stroke-width="3" stroke-linecap="round" stroke-linejoin="round" d="
						M1280.267,1271.967c-5.889-2.676-8.495-9.62-5.818-15.509c2.676-5.89,9.621-8.494,15.51-5.818
						c5.889,2.676,8.494,9.62,5.818,15.51c-2.604,5.732-9.273,8.38-15.099,5.996"/>
					
						<path id="path4838" sodipodi:open="true" sodipodi:end="8.2424464" sodipodi:start="1.9974614" sodipodi:ry="15" sodipodi:rx="15" sodipodi:cy="1168.0764" sodipodi:cx="1595" sodipodi:type="arc" fill="#8A5F00" stroke="#000000" stroke-width="3" stroke-linecap="round" stroke-linejoin="round" d="
						M1679.408,1179.676c-5.889-2.677-8.494-9.62-5.818-15.51c2.676-5.889,9.62-8.494,15.509-5.818
						c5.89,2.676,8.495,9.621,5.819,15.51c-2.604,5.731-9.273,8.379-15.099,5.995"/>
				</g>
				<path id="path1996" sodipodi:nodetypes="csccccccc" fill="#8A5F00" stroke="#000000" stroke-width="3" d="M1659.741,1587.976
					c54.606-38.201,78.615-59.77,82.653-101.324c2.762-28.406-19.964-34.662-26.252-49.037
					c-7.623-37.474-2.921-85.941,27.367-112.718c5.959-2.494,13.386,0,20.08,0c-0.307,3.756,0.602,11.212-0.427,14.63
					c-23.624-0.909-29.262,41.528-28.321,75.103c1.27,20.632,19.087,14.049,30.787,27.264
					C1789.462,1506.393,1731.837,1579.601,1659.741,1587.976z"/>
				<g id="g6652">
					<g id="g6640">
						<path id="path2911" sodipodi:nodetypes="czscszzsc" fill="#8A5F00" stroke="#000000" stroke-width="3" d="M1200.194,1454.568
							c0-3.469,35.804,21.4,115.127,35.384c79.323,13.984,248.004,26.653,373.803-13.872c29.417-9.475,46.078-17.624,46.078-17.624
							c15.402,15.513,8.558,29.914,5.984,45.425c-4.898,29.515-34.376,55.841-70.993,78.881
							c-38.461,24.201-346.567,40.62-375.477,25.243c-28.909-15.376-83.62-44.691-97.812-119.9
							C1194.262,1474.106,1194.627,1466.735,1200.194,1454.568z"/>
						<g id="g6630">
							<path id="path5727" sodipodi:nodetypes="czzs" fill="none" stroke="#000000" stroke-width="3" d="M1195.326,1477.061
								c60.543,21.212,110.289,36.585,183.793,44.174c72.648,7.499,138.815,4.485,205.881-2.366
								c66.737-6.817,106.62-19.6,158.82-38.601"/>
							<path id="path6616" sodipodi:nodetypes="czzs" fill="none" stroke="#000000" stroke-width="3" d="M1196.999,1491.924
								c60.544,21.213,108.616,35.47,182.121,43.059c72.648,7.499,138.815,4.484,205.881-2.367
								c66.059-6.748,105.807-19.34,157.233-38.023"/>
							<path id="path6618" sodipodi:nodetypes="czzs" fill="none" stroke="#000000" stroke-width="3" d="M1201.956,1506.597
								c57.945,20.158,106.825,34.792,177.952,42.134c72.647,7.5,138.815,4.485,205.881-2.366
								c64.595-6.599,104.031-18.784,153.831-36.791"/>
							<path id="path6620" sodipodi:nodetypes="czzs" fill="none" stroke="#000000" stroke-width="3" d="M1207.452,1521.976
								c55.912,19.317,104.053,33.36,173.246,40.502c72.648,7.5,138.816,4.485,205.882-2.365
								c60.553-6.186,98.997-17.282,144.594-33.479"/>
							<path id="path6622" sodipodi:nodetypes="czzs" fill="none" stroke="#000000" stroke-width="3" d="M1215.412,1538.186
								c52.919,18.05,99.855,31.205,166.074,38.04c72.648,7.5,138.814,4.485,205.881-2.366
								c54.15-5.532,90.622-14.991,130.338-28.512"/>
							<path id="path6624" sodipodi:nodetypes="czzs" fill="none" stroke="#000000" stroke-width="3" d="M1226.333,1555.615
								c48.595,16.161,93.522,27.997,155.153,34.359c72.648,7.501,138.814,4.486,205.881-2.365
								c42.652-4.357,74.335-11.151,105.275-20.446"/>
							<path id="path6626" sodipodi:nodetypes="czs" fill="none" stroke="#000000" stroke-width="3" d="M1244.853,1575.353
								c41.848,13.11,82.889,23.379,136.633,28.927c43.833,4.526,85.309,5.222,126.045,3.558"/>
							<path id="path6628" sodipodi:nodetypes="cs" fill="none" stroke="#000000" stroke-width="3" d="M1277.788,1598.683
								c22.853,6.086,46.502,11.124,73.068,14.994"/>
						</g>
					</g>
					<path id="path4840" sodipodi:nodetypes="cssccsscc" fill="#8A5F00" stroke="#000000" stroke-width="2.8214" d="
						M1200.755,1447.805c27.852,14.068,63.941,24.689,104.259,33.1c109.959,22.936,238.532,23.711,330.231,3.011
						c39.937-9.017,75.855-17.704,102.715-31.228c8.114,3.353,9.435,7.608,9.125,14.647c-34.813,11.93-72.145,23.656-110.826,30.803
						c-108.046,19.962-227.01,20.525-333.576-2.466c-38.133-8.226-74.678-19.468-108.566-33.917
						C1192.121,1457.105,1194.334,1452.455,1200.755,1447.805z"/>
				</g>
				<g id="g4804">
					<g id="g3804" transform="matrix(0.905997,0,0,0.958983,123.6298,68.66402)">
						
							<path id="path3798" sodipodi:open="true" sodipodi:end="8.2424464" sodipodi:start="1.9974614" sodipodi:ry="59.093925" sodipodi:rx="40.406101" sodipodi:cy="1612.4918" sodipodi:cx="1394.0105" sodipodi:type="arc" fill="#FCEF3C" stroke="#000000" stroke-width="2.9469" stroke-linecap="round" stroke-linejoin="round" d="
							M1282.974,1540.237c-16.448-10.542-23.721-37.888-16.244-61.078c7.477-23.19,26.872-33.443,43.321-22.901
							c16.448,10.542,23.721,37.887,16.243,61.077c-7.276,22.567-25.902,32.989-42.173,23.6"/>
						
							<path id="path3800" sodipodi:open="true" sodipodi:end="8.2424464" sodipodi:start="1.9974614" sodipodi:ry="59.093925" sodipodi:rx="40.406101" sodipodi:cy="1612.4918" sodipodi:cx="1394.0105" sodipodi:type="arc" fill="#FCEF3C" stroke="#000000" stroke-width="4.9226" stroke-linecap="round" stroke-linejoin="round" d="
							M1299.251,1523.389c-9.847-6.311-14.201-22.682-9.725-36.565c4.476-13.882,16.087-20.02,25.934-13.71
							c9.847,6.311,14.201,22.682,9.724,36.565c-4.355,13.51-15.505,19.749-25.247,14.128"/>
						
							<path id="path3802" sodipodi:open="true" sodipodi:end="8.2424464" sodipodi:start="1.9974614" sodipodi:ry="59.093925" sodipodi:rx="40.406101" sodipodi:cy="1612.4918" sodipodi:cx="1394.0105" sodipodi:type="arc" fill="#FCEF3C" stroke="#000000" stroke-width="11.2747" stroke-linecap="round" stroke-linejoin="round" d="
							M1312.889,1509.229c-4.3-2.755-6.2-9.902-4.246-15.964c1.954-6.061,7.023-8.742,11.323-5.986
							c4.3,2.756,6.199,9.903,4.246,15.964c-1.902,5.899-6.769,8.623-11.023,6.169"/>
					</g>
					<g id="g4750" transform="matrix(0.905997,0,0,0.958983,199.8963,81.79601)">
						
							<path id="path4752" sodipodi:open="true" sodipodi:end="8.2424464" sodipodi:start="1.9974614" sodipodi:ry="59.093925" sodipodi:rx="40.406101" sodipodi:cy="1612.4918" sodipodi:cx="1394.0105" sodipodi:type="arc" fill="#FCEF3C" stroke="#000000" stroke-width="2.9469" stroke-linecap="round" stroke-linejoin="round" d="
							M1264.53,1537.237c-16.449-10.542-23.721-37.887-16.244-61.078c7.478-23.19,26.873-33.443,43.321-22.901
							c16.448,10.542,23.72,37.888,16.243,61.077c-7.276,22.567-25.901,32.989-42.173,23.601"/>
						
							<path id="path4754" sodipodi:open="true" sodipodi:end="8.2424464" sodipodi:start="1.9974614" sodipodi:ry="59.093925" sodipodi:rx="40.406101" sodipodi:cy="1612.4918" sodipodi:cx="1394.0105" sodipodi:type="arc" fill="#FCEF3C" stroke="#000000" stroke-width="4.9226" stroke-linecap="round" stroke-linejoin="round" d="
							M1280.806,1520.388c-9.847-6.311-14.201-22.682-9.724-36.564c4.475-13.884,16.086-20.022,25.933-13.711
							c9.847,6.311,14.201,22.681,9.725,36.564c-4.356,13.509-15.507,19.75-25.248,14.128"/>
						
							<path id="path4756" sodipodi:open="true" sodipodi:end="8.2424464" sodipodi:start="1.9974614" sodipodi:ry="59.093925" sodipodi:rx="40.406101" sodipodi:cy="1612.4918" sodipodi:cx="1394.0105" sodipodi:type="arc" fill="#FCEF3C" stroke="#000000" stroke-width="11.2747" stroke-linecap="round" stroke-linejoin="round" d="
							M1294.444,1506.229c-4.3-2.755-6.201-9.903-4.246-15.965c1.954-6.061,7.024-8.741,11.323-5.986
							c4.299,2.755,6.2,9.903,4.246,15.965c-1.901,5.898-6.77,8.622-11.023,6.169"/>
					</g>
					<g id="g4758" transform="matrix(0.905997,0,0,0.958983,276.1628,88.86707)">
						
							<path id="path4760" sodipodi:open="true" sodipodi:end="8.2424464" sodipodi:start="1.9974614" sodipodi:ry="59.093925" sodipodi:rx="40.406101" sodipodi:cy="1612.4918" sodipodi:cx="1394.0105" sodipodi:type="arc" fill="#FCEF3C" stroke="#000000" stroke-width="2.9469" stroke-linecap="round" stroke-linejoin="round" d="
							M1246.085,1535.62c-16.448-10.542-23.72-37.887-16.243-61.077c7.477-23.189,26.873-33.443,43.32-22.902
							c16.448,10.542,23.721,37.888,16.243,61.078c-7.276,22.566-25.901,32.989-42.172,23.6"/>
						
							<path id="path4762" sodipodi:open="true" sodipodi:end="8.2424464" sodipodi:start="1.9974614" sodipodi:ry="59.093925" sodipodi:rx="40.406101" sodipodi:cy="1612.4918" sodipodi:cx="1394.0105" sodipodi:type="arc" fill="#FCEF3C" stroke="#000000" stroke-width="4.9226" stroke-linecap="round" stroke-linejoin="round" d="
							M1262.362,1518.772c-9.847-6.31-14.201-22.681-9.724-36.564c4.475-13.883,16.086-20.021,25.934-13.71
							c9.847,6.31,14.199,22.682,9.724,36.564c-4.356,13.51-15.507,19.749-25.247,14.129"/>
						
							<path id="path4764" sodipodi:open="true" sodipodi:end="8.2424464" sodipodi:start="1.9974614" sodipodi:ry="59.093925" sodipodi:rx="40.406101" sodipodi:cy="1612.4918" sodipodi:cx="1394.0105" sodipodi:type="arc" fill="#FCEF3C" stroke="#000000" stroke-width="11.2747" stroke-linecap="round" stroke-linejoin="round" d="
							M1275.999,1504.613c-4.299-2.755-6.2-9.902-4.246-15.964c1.954-6.061,7.023-8.742,11.323-5.986
							c4.299,2.756,6.199,9.902,4.246,15.965c-1.901,5.898-6.77,8.622-11.023,6.168"/>
					</g>
					<g id="g4766" transform="matrix(0.905997,0,0,0.958983,352.4292,93.91783)">
						
							<path id="path4768" sodipodi:open="true" sodipodi:end="8.2424464" sodipodi:start="1.9974614" sodipodi:ry="59.093925" sodipodi:rx="40.406101" sodipodi:cy="1612.4918" sodipodi:cx="1394.0105" sodipodi:type="arc" fill="#FCEF3C" stroke="#000000" stroke-width="2.9469" stroke-linecap="round" stroke-linejoin="round" d="
							M1227.64,1534.466c-16.448-10.542-23.721-37.886-16.243-61.077c7.477-23.19,26.872-33.443,43.32-22.902
							c16.448,10.542,23.721,37.888,16.243,61.078c-7.276,22.566-25.901,32.989-42.172,23.6"/>
						
							<path id="path4770" sodipodi:open="true" sodipodi:end="8.2424464" sodipodi:start="1.9974614" sodipodi:ry="59.093925" sodipodi:rx="40.406101" sodipodi:cy="1612.4918" sodipodi:cx="1394.0105" sodipodi:type="arc" fill="#FCEF3C" stroke="#000000" stroke-width="4.9226" stroke-linecap="round" stroke-linejoin="round" d="
							M1243.917,1517.619c-9.847-6.311-14.201-22.682-9.725-36.565c4.476-13.883,16.087-20.021,25.935-13.71
							c9.846,6.31,14.199,22.682,9.724,36.564c-4.356,13.509-15.507,19.75-25.247,14.128"/>
						
							<path id="path4772" sodipodi:open="true" sodipodi:end="8.2424464" sodipodi:start="1.9974614" sodipodi:ry="59.093925" sodipodi:rx="40.406101" sodipodi:cy="1612.4918" sodipodi:cx="1394.0105" sodipodi:type="arc" fill="#FCEF3C" stroke="#000000" stroke-width="11.2747" stroke-linecap="round" stroke-linejoin="round" d="
							M1257.554,1503.459c-4.299-2.755-6.2-9.902-4.246-15.965c1.954-6.06,7.023-8.741,11.323-5.985
							c4.299,2.755,6.2,9.902,4.246,15.965c-1.901,5.898-6.77,8.622-11.023,6.168"/>
					</g>
					<g id="g4774" transform="matrix(0.905997,0,0,0.958983,428.6957,86.84678)">
						
							<path id="path4776" sodipodi:open="true" sodipodi:end="8.2424464" sodipodi:start="1.9974614" sodipodi:ry="59.093925" sodipodi:rx="40.406101" sodipodi:cy="1612.4918" sodipodi:cx="1394.0105" sodipodi:type="arc" fill="#FCEF3C" stroke="#000000" stroke-width="2.9469" stroke-linecap="round" stroke-linejoin="round" d="
							M1209.196,1536.083c-16.448-10.542-23.72-37.888-16.243-61.078c7.477-23.19,26.872-33.443,43.32-22.901
							c16.448,10.542,23.721,37.887,16.243,61.078c-7.276,22.566-25.901,32.988-42.172,23.6"/>
						
							<path id="path4778" sodipodi:open="true" sodipodi:end="8.2424464" sodipodi:start="1.9974614" sodipodi:ry="59.093925" sodipodi:rx="40.406101" sodipodi:cy="1612.4918" sodipodi:cx="1394.0105" sodipodi:type="arc" fill="#FCEF3C" stroke="#000000" stroke-width="4.9226" stroke-linecap="round" stroke-linejoin="round" d="
							M1225.471,1519.234c-9.846-6.311-14.199-22.682-9.724-36.564c4.476-13.883,16.087-20.021,25.934-13.711
							c9.847,6.311,14.2,22.681,9.725,36.565c-4.356,13.509-15.506,19.749-25.247,14.127"/>
						
							<path id="path4780" sodipodi:open="true" sodipodi:end="8.2424464" sodipodi:start="1.9974614" sodipodi:ry="59.093925" sodipodi:rx="40.406101" sodipodi:cy="1612.4918" sodipodi:cx="1394.0105" sodipodi:type="arc" fill="#FCEF3C" stroke="#000000" stroke-width="11.2747" stroke-linecap="round" stroke-linejoin="round" d="
							M1239.11,1505.074c-4.299-2.755-6.2-9.902-4.246-15.964c1.955-6.061,7.023-8.741,11.323-5.986
							c4.299,2.755,6.201,9.903,4.246,15.965c-1.901,5.898-6.77,8.622-11.023,6.169"/>
					</g>
					<g id="g4782" transform="matrix(0.905997,0,0,0.958983,504.9622,82.80617)">
						
							<path id="path4784" sodipodi:open="true" sodipodi:end="8.2424464" sodipodi:start="1.9974614" sodipodi:ry="59.093925" sodipodi:rx="40.406101" sodipodi:cy="1612.4918" sodipodi:cx="1394.0105" sodipodi:type="arc" fill="#FCEF3C" stroke="#000000" stroke-width="2.9469" stroke-linecap="round" stroke-linejoin="round" d="
							M1190.751,1537.005c-16.449-10.542-23.721-37.887-16.243-61.077c7.476-23.19,26.872-33.444,43.32-22.902
							c16.448,10.542,23.72,37.888,16.243,61.078c-7.276,22.566-25.901,32.988-42.173,23.6"/>
						
							<path id="path4786" sodipodi:open="true" sodipodi:end="8.2424464" sodipodi:start="1.9974614" sodipodi:ry="59.093925" sodipodi:rx="40.406101" sodipodi:cy="1612.4918" sodipodi:cx="1394.0105" sodipodi:type="arc" fill="#FCEF3C" stroke="#000000" stroke-width="4.9226" stroke-linecap="round" stroke-linejoin="round" d="
							M1207.027,1520.157c-9.848-6.31-14.2-22.681-9.725-36.564c4.477-13.883,16.087-20.021,25.934-13.711
							c9.847,6.311,14.2,22.682,9.724,36.565c-4.355,13.509-15.505,19.749-25.246,14.128"/>
						
							<path id="path4788" sodipodi:open="true" sodipodi:end="8.2424464" sodipodi:start="1.9974614" sodipodi:ry="59.093925" sodipodi:rx="40.406101" sodipodi:cy="1612.4918" sodipodi:cx="1394.0105" sodipodi:type="arc" fill="#FCEF3C" stroke="#000000" stroke-width="11.2747" stroke-linecap="round" stroke-linejoin="round" d="
							M1220.665,1505.998c-4.299-2.756-6.2-9.903-4.246-15.965c1.955-6.06,7.024-8.741,11.323-5.985s6.201,9.902,4.246,15.964
							c-1.902,5.899-6.77,8.622-11.023,6.169"/>
					</g>
					<g id="g4790" transform="matrix(0.905997,0,0,0.958983,581.2287,70.68434)">
						
							<path id="path4792" sodipodi:open="true" sodipodi:end="8.2424464" sodipodi:start="1.9974614" sodipodi:ry="59.093925" sodipodi:rx="40.406101" sodipodi:cy="1612.4918" sodipodi:cx="1394.0105" sodipodi:type="arc" fill="#FCEF3C" stroke="#000000" stroke-width="2.9469" stroke-linecap="round" stroke-linejoin="round" d="
							M1172.305,1539.775c-16.447-10.542-23.72-37.887-16.242-61.077c7.476-23.19,26.872-33.444,43.32-22.902
							c16.448,10.542,23.72,37.888,16.243,61.078c-7.276,22.566-25.902,32.989-42.173,23.6"/>
						
							<path id="path4794" sodipodi:open="true" sodipodi:end="8.2424464" sodipodi:start="1.9974614" sodipodi:ry="59.093925" sodipodi:rx="40.406101" sodipodi:cy="1612.4918" sodipodi:cx="1394.0105" sodipodi:type="arc" fill="#FCEF3C" stroke="#000000" stroke-width="4.9226" stroke-linecap="round" stroke-linejoin="round" d="
							M1188.583,1522.927c-9.848-6.311-14.201-22.682-9.725-36.565c4.477-13.883,16.087-20.021,25.934-13.71
							c9.847,6.31,14.201,22.681,9.724,36.564c-4.355,13.51-15.505,19.75-25.247,14.128"/>
						
							<path id="path4796" sodipodi:open="true" sodipodi:end="8.2424464" sodipodi:start="1.9974614" sodipodi:ry="59.093925" sodipodi:rx="40.406101" sodipodi:cy="1612.4918" sodipodi:cx="1394.0105" sodipodi:type="arc" fill="#FCEF3C" stroke="#000000" stroke-width="11.2747" stroke-linecap="round" stroke-linejoin="round" d="
							M1202.22,1508.769c-4.299-2.756-6.199-9.903-4.246-15.966c1.955-6.06,7.023-8.741,11.323-5.985s6.2,9.902,4.246,15.965
							c-1.901,5.898-6.77,8.622-11.023,6.168"/>
					</g>
				</g>
			</g>
		</g>
	</g>
</g>
</svg>
